<?xml version="1.0" encoding="UTF-8" standalone="no"?>
<!-- Created with Inkscape (http://www.inkscape.org/) -->

<svg
   xmlns:osb="http://www.openswatchbook.org/uri/2009/osb"
   xmlns:dc="http://purl.org/dc/elements/1.1/"
   xmlns:cc="http://creativecommons.org/ns#"
   xmlns:rdf="http://www.w3.org/1999/02/22-rdf-syntax-ns#"
   xmlns:svg="http://www.w3.org/2000/svg"
   xmlns="http://www.w3.org/2000/svg"
   xmlns:xlink="http://www.w3.org/1999/xlink"
   xmlns:sodipodi="http://sodipodi.sourceforge.net/DTD/sodipodi-0.dtd"
   xmlns:inkscape="http://www.inkscape.org/namespaces/inkscape"
   id="svg2"
   version="1.1"
   inkscape:version="0.48.5 r10040"
   width="632"
   height="212"
   sodipodi:docname="logoFestival.svg">
  <metadata
     id="metadata8">
    <rdf:RDF>
      <cc:Work
         rdf:about="">
        <dc:format>image/svg+xml</dc:format>
        <dc:type
           rdf:resource="http://purl.org/dc/dcmitype/StillImage" />
        <dc:title />
      </cc:Work>
    </rdf:RDF>
  </metadata>
  <defs
     id="defs6">
    <linearGradient
       id="linearGradient3843">
      <stop
         style="stop-color:#d40300;stop-opacity:1;"
         offset="0"
         id="stop3845" />
      <stop
         style="stop-color:#d4c500;stop-opacity:0.51764709"
         offset="1"
         id="stop3847" />
    </linearGradient>
    <linearGradient
       id="linearGradient3065">
      <stop
         style="stop-color:#ff4e00;stop-opacity:1;"
         offset="0"
         id="stop3067" />
      <stop
         style="stop-color:#ffff00;stop-opacity:1"
         offset="1"
         id="stop3069" />
    </linearGradient>
    <linearGradient
       id="linearGradient5333"
       osb:paint="solid">
      <stop
         style="stop-color:#d40000;stop-opacity:1;"
         offset="0"
         id="stop5335" />
    </linearGradient>
    <linearGradient
       id="linearGradient3889">
      <stop
         style="stop-color:#d40000;stop-opacity:1"
         offset="0"
         id="stop3891" />
      <stop
         id="stop5347"
         offset="1"
         style="stop-color:#d4cd00;stop-opacity:0.49803922;" />
    </linearGradient>
    <linearGradient
       inkscape:collect="always"
       xlink:href="#linearGradient3889"
       id="linearGradient5345"
       x1="388.91199"
       y1="275.21899"
       x2="391.88058"
       y2="10.724818"
       gradientUnits="userSpaceOnUse"
       spreadMethod="reflect" />
    <linearGradient
       id="linearGradient3889-0">
      <stop
         style="stop-color:#d40000;stop-opacity:1"
         offset="0"
         id="stop3891-4" />
      <stop
         id="stop5347-9"
         offset="1"
         style="stop-color:#d4cd00;stop-opacity:0.49803922;" />
    </linearGradient>
    <linearGradient
       inkscape:collect="always"
       xlink:href="#linearGradient3889-0-8"
       id="linearGradient3916-8"
       gradientUnits="userSpaceOnUse"
       gradientTransform="translate(126.59835,-65.962532)"
       spreadMethod="reflect"
       x1="388.91199"
       y1="275.21899"
       x2="391.88058"
       y2="10.724818" />
    <linearGradient
       id="linearGradient3889-0-8">
      <stop
         style="stop-color:#d40000;stop-opacity:1"
         offset="0"
         id="stop3891-4-1" />
      <stop
         id="stop5347-9-6"
         offset="1"
         style="stop-color:#d4cd00;stop-opacity:0.49803922;" />
    </linearGradient>
    <linearGradient
       inkscape:collect="always"
       xlink:href="#linearGradient3843-8"
       id="linearGradient3849-3"
       x1="992.97107"
       y1="499.84958"
       x2="994.89917"
       y2="29.393351"
       gradientUnits="userSpaceOnUse"
       gradientTransform="translate(-62.984577,-22.494492)" />
    <linearGradient
       id="linearGradient3843-8">
      <stop
         style="stop-color:#d40300;stop-opacity:1;"
         offset="0"
         id="stop3845-7" />
      <stop
         style="stop-color:#d4c500;stop-opacity:0.51764709"
         offset="1"
         id="stop3847-6" />
    </linearGradient>
    <linearGradient
       y2="34.545048"
       x2="989.24231"
       y1="497.02115"
       x1="984.48578"
       gradientTransform="matrix(1,0,0,0.63753022,-615.83061,151.0478)"
       gradientUnits="userSpaceOnUse"
       id="linearGradient3988-9"
       xlink:href="#linearGradient3843-8-4"
       inkscape:collect="always" />
    <linearGradient
       id="linearGradient3843-8-4">
      <stop
         style="stop-color:#d40300;stop-opacity:1;"
         offset="0"
         id="stop3845-7-8" />
      <stop
         style="stop-color:#d4c500;stop-opacity:0.51764709"
         offset="1"
         id="stop3847-6-8" />
    </linearGradient>
    <linearGradient
       inkscape:collect="always"
       xlink:href="#linearGradient3843-8-4"
       id="linearGradient3062"
       gradientUnits="userSpaceOnUse"
       gradientTransform="matrix(1,0,0,0.63753022,-711.59836,34.496846)"
       x1="984.48578"
       y1="497.02115"
       x2="989.24231"
       y2="34.545048" />
    <linearGradient
       inkscape:collect="always"
       xlink:href="#linearGradient3843-8-4"
       id="linearGradient3846"
       x1="399.11597"
       y1="455.17627"
       x2="400.48981"
       y2="261.42902"
       gradientUnits="userSpaceOnUse"
       gradientTransform="matrix(0.82076619,0,0,0.71843108,-12.345222,-38.29989)" />
  </defs>
  <sodipodi:namedview
     pagecolor="#ffffff"
     bordercolor="#666666"
     borderopacity="1"
     objecttolerance="10"
     gridtolerance="10"
     guidetolerance="10"
     inkscape:pageopacity="0"
     inkscape:pageshadow="2"
     inkscape:window-width="1920"
     inkscape:window-height="1018"
     id="namedview4"
     showgrid="false"
     inkscape:zoom="1.4142136"
     inkscape:cx="345.05198"
     inkscape:cy="57.655237"
     inkscape:window-x="-8"
     inkscape:window-y="-8"
     inkscape:window-maximized="1"
     inkscape:current-layer="layer3"
     showguides="true"
     inkscape:guide-bbox="true" />
  <g
     inkscape:groupmode="layer"
     id="layer5"
     inkscape:label="Dégradé"
     style="display:inline"
     transform="translate(0,-88)" />
  <g
     inkscape:groupmode="layer"
     id="layer3"
     inkscape:label="FanfarFond"
     style="display:inline"
     transform="translate(0,-88)">
    <path
       inkscape:connector-curvature="0"
       style="fill:url(#linearGradient3846);fill-opacity:1;stroke:none"
       d="m 23.895449,98.56892 c -11.498178,-0.0451 -17.807006,0.84791 -18.434925,1.39834 -1.242747,1.08938 5.231225,17.4439 36.796678,100.44564 29.089933,76.49232 31.344545,83.87473 33.437425,85.45599 1.550608,1.17156 6.992263,-0.43096 9.234252,-2.05965 1.437321,-1.04413 0.579723,-1.90891 -7.000652,-26.39332 -3.479277,-11.23797 -6.760725,-22.38616 -7.014612,-24.59856 1.929892,-4.68941 0.329488,-2.15971 4.528044,-4.30872 3.73378,-1.66732 1.658358,-2.71944 -0.364864,-13.2781 -3.102126,-16.18912 -4.968084,-15.89739 -11.707625,-18.09548 -1.964315,-0.64065 -4.352605,-1.99074 -5.309327,-2.98598 -1.769072,-1.84028 -3.908951,-10.56219 -3.908951,-13.7028 0,-1.78251 1.09341,-0.89805 8.467038,-2.35163 1.363243,-0.26874 1.253907,-1.21118 1.253907,-2.04238 0,-5.33008 -18.011412,-68.02984 -21.279818,-74.01182 l -2.512087,-3.40803 z m 352.878171,2.90255 c -8.42281,0.117 -25.79319,0.84315 -30.06056,1.36951 -7.64513,0.94299 -8.78385,1.17086 -9.5249,12.06026 -0.82733,12.15725 -1.81287,153.72307 -1.12855,162.09193 0.43711,5.34569 -0.15646,7.95073 0.83726,8.15353 1.87445,0.38254 8.81463,-0.58786 11.07517,-1.58376 1.34844,-0.59406 3.02434,-2.51058 3.5161,-4.13898 0.40599,-1.3444 1.06309,-12.47477 2.13363,-24.32658 1.91385,-21.18791 2.80543,-25.33388 4.03384,-26.25964 0.3402,-0.25638 2.04402,-0.32667 4.01993,-0.96347 2.35739,-0.75975 5.12938,-2.02179 5.56323,-3.02062 0.77455,-1.78321 3.02133,-17.70118 3.75429,-22.59977 l 0.32648,-3.85739 -5.88275,-0.85731 c -8.07846,-2.18408 -6.89944,-2.02679 -6.84847,-7.43128 0.0452,-4.79031 0.60238,-8.6916 1.33613,-9.33387 2.27395,1.27455 4.00331,-1.29543 6.82004,-1.68982 6.06184,-0.84877 6.39,-2.56356 7.34733,-5.67983 0.95351,-3.10381 8.37099,-67.29944 8.37099,-71.82066 0,-0.12422 -2.88158,-0.15125 -5.68919,-0.11225 z m -58.54033,3.48417 c -1.10006,-0.009 -4.56271,4.40596 -9.73716,12.07435 l -4.4302,6.39235 0.73218,5.11683 c 1.67008,10.41026 2.72011,17.73136 3.48369,19.02006 0.42561,0.71829 1.65539,2.98902 2.91235,4.39212 2.00003,2.23256 3.35241,2.41815 3.20124,5.5802 -0.095,1.98725 -4.21484,15.67649 -3.03761,15.5439 0.19811,-0.1734 6.36855,-17.24421 8.07853,-22.97518 l 2.45076,-10.41725 0.19575,-10.77646 c -0.41632,-10.72098 -2.12234,-21.4416 -3.21069,-23.19586 -0.088,-0.1418 -0.48169,-0.75381 -0.63884,-0.75506 z m 95.09008,28.53092 c -2.00549,0 -7.63475,4.65091 -11.25989,9.45185 -12.3485,16.35377 -19.32046,58.51245 -18.03121,103.49898 0.65396,22.81861 2.13148,30.06813 6.51483,36.14607 2.18304,3.02698 2.91959,3.92883 5.15544,2.35735 8.70131,-6.11577 22.05607,-46.96271 28.34208,-86.48114 1.06997,-6.72662 1.65767,-12.83054 1.66719,-29.38833 0.0107,-18.64321 -0.84958,-21.72404 -2.07757,-24.80832 -2.79009,-7.0077 -7.12528,-10.77646 -10.31087,-10.77646 z m -151.25182,0.71843 c -3.42861,0.004 -6.84135,1.42266 -10.28523,4.26568 l -3.22221,2.2637 0.26529,9.81877 c 0.72925,17.18129 11.89772,126.97618 14.39377,132.81766 l 1.29208,0.9198 2.84465,0.0948 c 2.54036,-0.0622 4.88899,-0.15284 5.84537,-1.82053 0.57724,-1.00656 0.82385,-4.61796 1.50872,-6.36155 1.72999,-4.40427 2.36522,-4.8142 5.87619,1.692 1.52552,2.82694 3.56954,9.12907 4.12462,10.2963 0.55508,1.16722 1.32946,0.45955 1.52491,0.45955 0.90365,0 6.05077,-7.5763 6.05077,-8.9334 0,-0.84091 -1.79012,-9.45361 -3.75171,-18.14839 l -3.65845,-15.27493 3.73063,-14.20119 c 4.26856,-19.17515 4.86667,-24.67536 4.41162,-39.38101 -0.73599,-23.78432 -7.13563,-41.17316 -17.27649,-51.77513 -4.4957,-4.70012 -9.26633,-6.73769 -13.67453,-6.7321 z m 200.72863,3.00843 -4.41162,0.33676 c -5.46016,0.43338 -10.82232,2.44058 -12.49104,4.6698 -0.69117,0.92336 -2.37676,3.40471 -2.74443,4.75961 -1.69763,6.25602 -17.59849,115.47575 -18.74938,128.53181 -0.25841,2.93134 -0.24566,7.37367 0.0256,7.99255 0.43345,0.98873 2.16127,1.07084 8.3872,0.78578 5.25511,-0.2406 8.59715,-0.69739 9.64401,-1.52666 2.18485,-1.73074 7.10751,-20.48923 6.61742,-24.89813 -0.19376,-1.74315 -2.08736,-2.669 -4.07818,-3.16559 -1.3238,-0.33021 -1.78711,-0.8671 -2.02627,-1.52667 -0.72435,-1.99766 2.1993,-19.63314 13.67089,-79.7683 3.32282,-17.41858 6.84772,-32.7713 7.07911,-33.99077 l -0.92336,-2.20019 z m -285.44709,0.89804 c -6.01766,0.0426 -14.09418,0.80108 -18.08251,1.95323 -2.02943,0.58627 -2.94447,1.14535 -2.94447,2.79867 0,2.93497 4.60003,26.74179 16.60807,83.66002 5.90998,28.01338 11.02764,51.97424 11.28113,53.23125 0.25348,1.25702 1.22288,4.27496 1.37109,4.70436 0.27999,0.81125 5.91836,-0.0485 9.21375,-1.11033 2.26215,-0.72889 1.49984,-2.79655 -1.39234,-23.31753 -1.31604,-9.33779 -2.22476,-17.26949 -1.94492,-18.16736 0.27986,-0.89785 1.52093,-1.02662 2.85144,-1.757 l 2.70119,-2.27712 0.60161,-9.70906 c -0.075,-12.13951 1.9264,-11.36209 -6.824,-14.68612 -4.62575,-1.75719 -5.26944,-3.60638 -6.04586,-8.72958 -0.60159,-3.96955 1.23611,-4.26382 4.48266,-4.26382 4.15888,0 4.35303,-1.8307 4.35303,-6.07518 0,-3.93001 -3.87723,-34.63262 -5.88606,-47.49856 -0.7838,-5.01995 0.40792,-6.49202 -3.05951,-8.01499 -0.91062,-0.39997 -3.67371,-0.76643 -7.2843,-0.74088 z m 405.61239,0.47147 -6.61743,0.44901 c -6.77253,0.47033 -17.94324,2.43353 -20.41656,3.59216 -0.91922,0.43062 -3.31785,3.29818 -5.10414,8.30686 -3.08491,8.64999 -14.10692,46.64892 -14.10692,48.5839 0,1.54367 3.36927,2.37981 7.41255,2.37981 3.99297,0 4.51421,-0.0773 4.51421,1.68382 0,0.83376 -4.15958,10.67864 -10.87515,22.51832 -13.25956,23.37685 -16.59106,28.26907 -20.46786,41.6241 -2.73115,9.40846 -3.70984,14.12978 -2.28275,15.37892 0.94,0.8228 10.91331,1.42509 13.92737,0.71843 1.06478,-0.24965 4.86624,-2.90964 5.97621,-4.82696 1.6022,-2.76757 5.38994,-15.16611 6.69437,-20.49774 l -1.23115,-2.78392 -5.00154,-0.98784 c -2.74472,-0.54801 -3.87715,-1.21599 -4.28337,-1.57157 -1.37825,-1.20641 1.66282,-6.16852 14.44035,-26.33499 6.94514,-10.96134 14.40043,-23.76133 16.31273,-27.8841 3.49514,-7.53527 21.84819,-55.34436 22.82756,-59.42772 z m -44.47527,0.15715 c -2.24342,0.0141 -5.50639,0.32758 -9.77225,0.96539 -11.71308,1.75132 -14.71378,2.00811 -15.74845,4.51265 -2.51513,6.08825 -14.18649,52.65708 -14.23516,56.41929 -0.41094,1.21085 2.51409,0.99441 5.07849,1.23481 9.28044,0.86997 8.037,-0.34614 7.51514,1.57156 -0.25649,0.94251 -2.77421,9.18426 -7.74598,18.52205 -15.54646,29.19882 -17.87547,32.05107 -21.49382,47.66342 -2.28901,9.87656 -2.73496,12.8634 -0.12824,13.49303 2.84093,0.68617 13.81564,0.92749 15.92799,0.22451 1.5767,-0.52472 2.5046,-3.01457 4.64246,-8.93549 3.33745,-9.24325 5.22298,-16.91961 4.66811,-18.18528 -0.31632,-0.72155 -3.42504,-1.33514 -7.20735,-1.66138 -3.02612,-0.26101 -4.03593,-0.54041 -4.23208,-0.98784 -0.58014,-1.32332 2.42038,-6.62827 15.8767,-30.1741 8.54342,-14.94927 14.15455,-25.24896 15.92799,-29.9945 6.43697,-17.22462 17.0556,-52.33203 16.41532,-53.79253 -0.26714,-0.60936 -3.24544,-0.88967 -5.48887,-0.87559 z m 79.63997,0.13471 c -5.03016,0.0316 -15.66862,1.38301 -20.18572,2.82882 -2.94566,0.94284 -3.2551,1.29601 -5.33498,6.01686 -3.83269,8.69935 -21.03059,49.97085 -19.85228,51.974 0.51298,0.87208 2.10359,2.68467 4.05253,2.91863 7.49194,0.89934 8.97713,-1.28083 8.97713,0.89804 0,2.00769 -4.39852,9.78135 -13.82478,24.38175 -6.92868,10.7319 -14.27861,21.92097 -17.26174,28.91685 -3.61403,8.47547 -8.20077,24.14783 -7.69468,25.30225 0.31849,0.72648 2.96616,0.92817 8.00247,0.92049 3.60303,-0.006 8.87871,-0.22495 9.36186,-0.49392 1.67765,-0.93396 9.94583,-20.9454 10.41348,-25.10019 0.21112,-1.87577 -2.15603,-2.13858 -6.51484,-2.80637 -4.26476,-0.65339 -2.93965,-0.78336 -3.15482,-2.71657 -0.27453,-2.46668 3.51154,-7.33236 15.69716,-25.16754 13.08904,-19.15743 19.73195,-31.68797 30.49659,-56.84586 4.956,-11.5826 11.49073,-29.48693 11.49073,-30.66803 0,-0.32606 -2.99139,-0.36974 -4.66811,-0.35921 z m -124.08959,0.0224 c -1.26436,0.003 -2.55809,0.0647 -3.7191,0.17961 l -4.51421,0.44902 -2.00062,3.25539 c -1.77578,5.44142 -28.31643,138.24636 -28.31643,141.44111 0,0.75832 8.70381,0.23177 9.84919,-0.58372 0.63054,-0.44894 1.39889,-2.51473 1.84673,-3.59216 2.37512,-5.71427 35.54943,-136.74217 35.54943,-140.43082 0,-0.62372 -4.90189,-0.72667 -8.69499,-0.71843 z m -353.80592,0.0456 c -0.72053,-0.008 -1.74206,0.92626 -1.73898,2.19953 0.002,0.98766 0.96477,8.22501 2.39855,16.0749 3.6296,19.87203 4.10861,26.02953 0.0374,22.09175 -0.66698,-0.64511 -4.58972,-8.96428 -8.75585,-18.5817 -8.83517,-20.39578 -9.91959,-19.68377 -12.43018,-20.68504 -2.32815,-0.92852 -3.37136,-0.77617 -4.08988,0.26941 -1.5284,2.22412 29.90836,130.641 33.23299,140.74767 2.45668,7.46817 6.2153,8.64002 1.83415,-13.14405 -3.78018,-18.79589 -4.70669,-20.98886 -2.54214,-21.71592 1.68328,-0.5654 1.92913,0.55227 5.10125,7.78729 8.00609,18.26046 12.0917,30.24269 15.42382,31.00799 0.86083,0.28965 3.90531,0.14384 4.04511,-0.72093 0.92238,-0.75692 -25.63998,-135.02287 -27.8408,-140.85997 -0.96346,-2.55533 -3.47451,-4.45819 -4.67539,-4.47093 z m 77.92589,0.80757 c -2.63794,0.0179 -4.27399,0.12479 -5.48888,0.94294 -3.75851,2.53113 0.53063,72.39119 2.92914,109.673 1.62038,25.18688 2.34781,32.66895 2.96207,33.67382 0.52201,0.85394 2.16354,1.272 4.9451,1.272 3.30916,0 4.66102,-0.55327 5.30782,-2.04238 0.40015,-0.92123 0.30854,-4.27853 0.30854,-5.89492 0,-1.61638 0.75663,-2.80886 1.1791,-3.49982 0.90465,-1.47961 4.89835,-3.00959 5.91761,-2.53443 1.13861,0.5308 1.12018,-1.29227 3.04493,6.43837 1.19876,4.81477 1.52297,7.57204 4.12508,8.54028 2.03395,0.75683 6.1102,0.24928 7.35383,-0.44069 1.11634,-0.61932 0.14438,-4.49601 -4.6798,-37.15118 -7.53711,-51.01903 -15.55128,-100.6265 -16.84696,-104.89095 -0.53371,-1.75658 -2.13338,-2.60116 -3.87588,-3.23294 -1.63541,-0.59294 -4.54377,-0.871 -7.1817,-0.85313 z m -132.887181,0.26941 c -2.123265,0.0537 -4.212344,-0.26191 -4.462161,0.30793 -0.229183,0.52278 -0.172057,3.42588 0.23524,5.68648 2.544711,14.12393 27.183462,130.62534 28.744422,135.51593 0.8557,2.68095 5.04899,4.95541 8.22589,4.63833 l 2.3978,-1.40858 -0.25649,-6.44211 c 0.15275,-4.45294 -1.46861,-4.66785 1.73608,-5.67437 2.78885,-1.26237 3.62578,-1.75436 4.76127,-0.55676 0.47345,0.49933 2.02639,3.05937 3.24862,6.48194 1.22222,3.42257 2.83814,7.77279 3.34681,7.95271 2.05676,0.7275 8.31285,0.4011 8.72491,-0.53882 0.59091,-1.34791 -41.09403,-132.22849 -44.81964,-140.88876 -1.42876,-3.32118 -2.6383,-3.80538 -5.08578,-4.40039 -2.09964,-0.51045 -4.67371,-0.72721 -6.796971,-0.67353 z m 319.611481,63.35664 c 5.63406,5.57371 2.38612,35.51233 -3.10352,44.11616 -3.14946,4.20738 -5.07365,3.098 -6.36094,-2.87373 -1.82134,-8.44924 0.94883,-31.19539 4.43727,-38.50341 1.02099,-2.13891 2.89718,-2.79394 5.02719,-2.73902 z m -131.13608,1.59584 c 1.42857,-0.0389 2.62868,0.50811 4.47703,2.39826 2.20473,2.25458 2.81543,2.67574 3.27372,6.33335 0.29926,2.38851 0.56023,7.9073 0.11651,12.28068 -0.86339,8.50982 -2.59354,13.26556 -5.28368,14.52578 -1.94094,0.90924 -2.62563,1.20001 -3.18047,-0.33677 -0.47555,-1.31719 -1.99487,-30.55816 -1.10539,-33.66027 0.36022,-1.25628 0.59116,-1.51079 1.70228,-1.54103 z m -161.60486,27.17664 c 2.4409,-0.0722 3.368,3.90427 3.00683,7.44095 -0.26221,2.56764 -2.24831,2.40575 -3.57551,-0.37462 -0.84863,-1.64712 -0.97343,-8.45897 0.56868,-7.06633 z m 116.58324,0.13536 c 1.19502,-0.1223 1.71605,-0.0654 2.23737,1.13476 0.85247,1.9626 1.44888,5.84336 0.66172,6.88926 -0.68522,0.91044 -3.22467,1.55122 -4.46292,1.12255 -0.97622,-0.33796 -0.47083,-6.14324 0.38323,-8.09137 0.2808,-0.64053 0.46359,-0.98181 1.1806,-1.0552 z"
       id="path3836"
       inkscape:export-filename="D:\Mes Documents\My Pictures\fanfo\logo\logofestival2011.png"
       inkscape:export-xdpi="57.918358"
       inkscape:export-ydpi="57.918358"
       sodipodi:nodetypes="ssssssccssssssccsssssssssssscccscssssscccsssccccssssssssssscccccccsssssscccsscccssscsssssscccssssssssscccsssssssccsssssssssscccsssccssscsssscsssssssssssssssssscssssssssccccsssscscsssssssssccsscsssssssssscsssccssssccccsssssssccsscsssssssscsccssssss" />
  </g>
  <g
     inkscape:groupmode="layer"
     id="layer4"
     inkscape:label="FanfarContour"
     style="display:inline"
     transform="translate(0,-88)">
    <path
       style="fill:#000000"
       d="m 281.03903,293.20262 c -3.01904,-6.66993 -1.8866,-6.07249 -10.46537,-5.52128 -9.03317,0.58041 -10.80948,0.0115 -11.96072,-3.83055 -0.96047,-3.20536 -2.88137,-20.25683 -7.86939,-69.8552 -2.04651,-20.34956 -4.27045,-41.68696 -4.94208,-47.41645 -2.85001,-24.3126 -2.89787,-25.10352 -1.67427,-27.66688 1.31836,-2.76188 6.30121,-6.18233 11.57409,-7.94499 5.20707,-1.74065 12.37042,-1.15998 16.71158,1.35468 9.52521,5.51754 19.15469,21.76677 22.69233,38.29206 1.07402,5.01701 1.25827,10.20599 1.01303,28.52876 l -0.29977,22.39635 -3.13882,12.91897 -3.13881,12.91898 3.36067,14.02219 c 4.75467,19.83849 4.7008,19.35178 2.55002,23.04202 -2.37029,4.06684 -7.92068,10.49462 -9.52844,11.03465 -2.58043,0.86675 -3.69825,0.34645 -4.88405,-2.27331 z m 8.48492,-8.38722 c 1.46712,-1.89732 2.66749,-4.20993 2.66749,-5.13912 0,-0.92919 -1.68672,-8.82441 -3.74827,-17.54492 l -3.74827,-15.85548 2.51992,-9.85388 c 5.02546,-19.65154 6.54441,-34.91342 5.01988,-50.43815 -2.44797,-24.92851 -9.27946,-40.41813 -21.57915,-48.92826 -5.82146,-4.02787 -11.04359,-3.84908 -17.54256,0.60061 -5.35067,3.66348 -5.28033,2.64046 -2.26043,32.87431 1.49979,15.01521 4.22598,42.33355 6.05819,60.70742 3.83701,38.47838 5.42604,50.89674 6.68222,52.22163 1.13458,1.19663 6.50746,1.22516 8.33323,0.0442 0.84081,-0.54384 1.79704,-2.88155 2.42444,-5.92706 0.87245,-4.2351 1.2935,-5.02901 2.66708,-5.02901 1.6032,0 2.02612,0.85091 7.42907,14.94699 0.73048,1.9058 2.084,1.19153 5.07716,-2.67932 z m -16.57014,-44.74125 c -0.29461,-0.672 -0.76178,-8.74492 -1.03816,-17.93981 -0.46312,-15.40751 -0.3915,-16.75526 0.91358,-17.19363 2.01559,-0.67701 4.67291,0.78513 7.04286,3.87521 1.91612,2.49838 2.04447,3.24963 2.05088,12.00476 0.009,12.61618 -2.6803,20.47529 -7.00702,20.47529 -0.78457,0 -1.66755,-0.54982 -1.96214,-1.22182 z m 5.0002,-20.5736 c -0.60352,-6.85059 -2.18159,-9.25956 -2.17076,-3.31375 0.004,2.1535 0.24462,5.64658 0.53489,7.7624 0.85683,6.24585 2.24538,2.46982 1.63587,-4.44865 z m -141.8832,71.06557 c -5.62086,-1.03663 -7.49754,-2.38678 -9.43945,-6.79109 l -1.46584,-3.32457 -0.41038,3.95138 -0.41038,3.95137 -7.3869,0.18287 c -4.06279,0.10057 -7.86598,-0.0896 -8.45152,-0.42254 -2.16736,-1.23248 -32.473286,-140.13304 -31.999425,-146.66236 0.296452,-4.08473 2.175588,-5.02248 10.082595,-5.03154 6.72395,-0.008 11.1221,0.91487 12.99439,2.72577 1.21993,1.17993 20.67574,61.17344 33.41478,103.03707 2.85376,9.37816 5.30567,16.94877 5.4487,16.82358 0.31734,-0.27777 -3.24597,-15.70716 -12.05402,-52.19478 -10.01981,-41.50744 -13.82984,-58.27781 -14.45664,-63.6329 -0.69776,-5.96138 0.17865,-6.77334 7.31101,-6.77334 4.30229,0 5.10174,0.23699 7.0928,2.10269 1.23419,1.15647 3.82539,5.69948 5.75821,10.09556 1.93281,4.39607 3.66497,7.8609 3.84924,7.69961 0.18426,-0.16129 -0.22735,-3.57063 -0.9147,-7.57632 -1.59751,-9.30994 -1.57831,-9.87862 0.39182,-11.60311 2.24984,-1.96933 8.40143,-1.98569 10.63764,-0.0283 2.97249,2.60188 3.69871,5.83497 22.11483,98.45335 8.63177,43.41091 9.69865,49.98955 8.38271,51.68986 -0.51276,0.66253 -2.69012,1.14551 -5.99433,1.32968 -4.29061,0.23914 -5.41821,0.059 -6.51243,-1.04046 -1.14981,-1.15532 -6.85709,-13.29194 -8.50561,-18.08736 -1.15243,-3.35235 -1.2518,-0.93623 -0.11817,2.87343 0.64185,2.15699 1.42587,6.33984 1.74226,9.29522 0.47925,4.47666 0.35515,5.53332 -0.74358,6.33149 -1.28112,0.93067 -4.87211,0.78779 -8.07625,-0.32135 -0.97801,-0.33855 -1.43634,-0.15687 -1.43634,0.56934 0,2.60693 -4.38697,3.56876 -10.84502,2.37774 z m 5.09907,-5.26625 c -6.7e-4,-1.43288 0.95394,1.67914 -20.21962,-65.91605 -23.28475,-74.33506 -24.13009,-76.80984 -26.63832,-77.98483 -0.86667,-0.40599 -3.89135,-0.92744 -6.72151,-1.15877 -7.249708,-0.59259 -7.598255,-0.0931 -5.925894,8.49211 3.747249,19.23682 25.695764,121.19358 27.996684,130.05214 1.39899,5.38609 1.96696,6.00674 6.11813,6.68563 4.32451,0.70723 5.19747,-0.56411 4.08259,-5.94571 -0.48658,-2.34875 -0.67238,-4.75475 -0.41289,-5.34665 0.54002,-1.23181 3.84581,-2.70766 6.06498,-2.70766 2.26423,0 3.03974,1.22858 4.9849,7.89727 0.97881,3.35566 2.21061,6.34117 2.73733,6.63449 0.52673,0.29331 2.5274,0.53824 4.44595,0.54429 2.77997,0.009 3.48814,-0.24428 3.48767,-1.24626 z M 112.56215,241.3746 c -1.27797,-0.70803 -2.76346,-6.72878 -2.0575,-8.3391 1.48098,-3.37816 5.44888,0.89081 5.06734,5.45184 -0.26422,3.15854 -1.09015,3.95083 -3.00984,2.88726 z m 40.10213,41.41077 c 0.002,-1.2842 -1.53684,-9.56882 -3.41901,-18.41026 -3.38483,-15.90033 -3.47746,-17.8349 -0.89003,-18.58984 1.28833,-0.3759 1.91581,0.82619 10.15704,19.45837 4.04895,9.15403 7.90612,17.3711 8.57151,18.26016 0.71568,0.95625 2.04014,1.61647 3.24279,1.61647 1.70943,0 2.033,-0.34132 2.033,-2.14448 0,-2.27756 -24.55443,-127.50245 -26.73108,-136.32551 -1.27389,-5.16379 -3.06812,-7.37152 -5.99085,-7.37152 -1.59362,0 -0.94007,6.20211 2.30042,21.83056 2.82258,13.61295 3.23154,19.83844 1.30323,19.83844 -2.01468,0 -3.6512,-2.95153 -11.86383,-21.39685 -7.02489,-15.77772 -8.15125,-17.82932 -10.42735,-18.99289 -3.87611,-1.98152 -5.52574,-1.06664 -4.93053,2.73445 0.64245,4.10275 30.52874,127.66677 32.64798,134.98216 0.91249,3.1498 1.83679,5.97862 2.05402,6.28627 0.92663,1.31238 1.93983,0.38636 1.94269,-1.77553 z m -7.84702,-5.02902 c -0.66226,-1.88588 -1.04008,-2.34158 -1.56233,-1.88445 -0.62697,0.54881 0.5111,3.50092 1.34963,3.50092 0.43027,0 0.52569,-0.72519 0.2127,-1.61647 z m 97.82099,12.43361 c -4.65103,-0.56473 -5.86398,-1.69711 -6.63432,-6.19364 -0.65275,-3.81011 -2.08689,-3.55987 -2.08689,0.36413 0,3.40932 -0.67178,3.6104 -12.1063,3.62373 -7.55145,0.009 -8.41285,-0.12231 -8.41285,-1.28055 0,-0.7097 -0.37246,-7.90299 -0.82767,-15.98509 -1.52876,-27.14196 -4.916,-110.85807 -4.91685,-121.52062 -8.2e-4,-12.42823 0.23718,-12.79288 8.35592,-12.79288 6.42185,0 16.8863,1.42514 17.7665,2.4196 0.39594,0.44734 1.15986,4.20792 1.69762,8.35686 1.86286,14.37246 5.92225,42.21566 11.99311,82.26036 7.28226,48.03535 8.67775,58.28284 8.11245,59.57232 -0.75386,1.71957 -5.16292,2.12017 -12.94072,1.17578 z m 8.19151,-4.64989 c 0.56235,-1.28276 -17.90171,-122.88115 -21.03956,-138.55981 -0.84446,-4.21938 -1.28699,-5.01232 -3.30786,-5.92706 -2.35748,-1.0671 -9.47963,-1.40066 -12.87926,-0.60319 -1.80102,0.42248 -1.84657,0.67559 -1.84047,10.22783 0.006,9.61681 1.16767,38.2558 3.68985,90.97735 1.17889,24.64243 2.44872,41.89891 3.12683,42.49247 0.15582,0.1364 2.06357,0.46158 4.23944,0.72263 5.03699,0.60432 6.17371,-0.556 6.17371,-6.3019 0,-2.8778 0.41005,-4.48088 1.35852,-5.31109 1.29813,-1.13628 4.56752,-2.50566 5.98224,-2.50566 0.89723,0 2.32531,3.29886 2.9546,6.8251 0.82722,4.63537 2.04241,7.48298 3.51404,8.23457 2.13001,1.08783 7.51182,0.906 8.02792,-0.27124 z m -23.75243,-44.00463 c -0.30095,-0.26342 -0.54718,-2.16359 -0.54718,-4.22261 0,-3.93175 1.26127,-5.71478 3.50853,-4.95995 2.2146,0.74387 3.12714,7.15798 1.25191,8.7994 -1.07309,0.9393 -3.34216,1.14566 -4.21326,0.38316 z M 64.494416,271.01848 C 46.182359,223.54101 8.651708,123.7634 5.334655,113.73848 1.306548,101.56463 0.758506,97.380501 3.076538,96.498612 c 2.442141,-0.929103 28.218255,-1.253784 34.252659,-0.431446 8.880107,1.210132 8.722192,0.962935 15.75693,24.665244 10.519596,35.44392 16.311071,57.42468 15.573506,59.1071 -0.231318,0.52765 -2.21891,1.17585 -4.416864,1.44046 -6.277245,0.7557 -6.369409,0.90136 -4.15595,6.56808 2.06742,5.29285 2.347785,5.47822 10.679243,7.061 1.228379,0.23336 2.628704,1.07081 3.11184,1.861 1.377541,2.25303 7.192621,22.85205 7.81303,27.67645 l 0.558654,4.34424 -3.370214,1.95222 c -2.583788,1.49668 -3.369606,2.41086 -3.36762,3.91772 0.0016,1.08101 2.748377,9.99807 6.104342,19.81568 8.503196,24.87544 9.327556,28.11085 7.778726,30.52951 -1.71066,2.67136 -5.104194,3.89012 -11.893793,4.27152 l -5.837667,0.32793 z m 18.017618,13.77923 c 1.8385,-0.67239 2.846327,-1.52657 2.846327,-2.41237 0,-0.75427 -2.268671,-8.449 -5.041474,-17.0994 -7.05158,-21.99904 -9.719238,-31.20555 -9.726272,-33.56698 -0.0049,-1.70721 0.520706,-2.21459 3.277011,-3.16231 1.998952,-0.6873 3.283065,-1.5966 3.283065,-2.32476 0,-1.91248 -1.571726,-9.1123 -3.793023,-17.37521 -2.321603,-8.63604 -3.219459,-9.70808 -9.523616,-11.37132 -2.456077,-0.64799 -4.778616,-1.83072 -5.675467,-2.89017 -1.711987,-2.02238 -5.172608,-13.22119 -4.535004,-14.67558 0.234312,-0.53447 2.433268,-1.16802 5.045553,-1.45371 2.546641,-0.27851 4.811094,-0.91888 5.03211,-1.42304 0.456108,-1.0404 -4.073176,-18.65267 -11.189711,-43.51155 -5.86458,-20.48565 -9.12358,-30.197 -10.954602,-32.64306 l -1.378559,-1.84163 -15.111824,0 c -8.311506,0 -16.088167,0.32493 -17.281479,0.72205 -1.926798,0.64123 -2.105651,0.983 -1.597852,3.05334 2.21932,9.04838 67.259767,180.1853 69.087211,181.78489 1.718955,1.50464 3.51576,1.552 7.237606,0.19081 z m 251.128096,3.6783 c -1.60208,-1.05769 -1.64794,-2.06479 -1.90847,-41.91306 -0.26722,-40.87398 1.10878,-127.16961 2.19455,-137.63083 0.37741,-3.63616 1.04093,-5.96672 1.91713,-6.73367 2.43191,-2.12869 9.88259,-3.20412 27.92527,-4.03073 22.53732,-1.032513 22.3564,-1.080504 21.6595,5.74535 -0.27135,2.6578 -1.22132,13.07637 -2.11104,23.15236 -0.88971,10.076 -2.18121,24.62423 -2.87,32.3294 -1.71386,19.17216 -2.50374,21.00975 -9.60852,22.35333 -8.20084,1.55084 -9.43243,2.64496 -8.04696,7.14869 0.78857,2.56337 1.19542,2.85759 5.54814,4.01229 2.58345,0.68535 5.15886,1.54693 5.72314,1.91463 1.37424,0.8955 1.30142,7.19076 -0.2212,19.12138 -1.94287,15.22363 -2.99366,17.18455 -9.62758,17.96635 -3.11942,0.36763 -3.48601,0.63094 -4.06333,2.91859 -0.34901,1.38298 -1.53795,12.92126 -2.6421,25.64063 -1.10416,12.71937 -2.39496,23.75977 -2.86847,24.53421 -1.85815,3.03908 -17.69054,5.65601 -21.00006,3.47108 z m 12.01747,-4.09048 c 1.64397,-0.3997 3.39735,-1.15737 3.89641,-1.68373 1.57716,-1.66341 2.39329,-7.47094 3.74905,-26.67799 1.29318,-18.32059 2.30641,-26.06794 3.52676,-26.96641 0.3369,-0.24803 2.08991,-0.82767 3.8956,-1.2881 1.80568,-0.46042 3.78786,-1.1231 4.40483,-1.4726 1.15407,-0.65376 6.49959,-26.34476 5.6384,-27.09858 -0.24478,-0.21426 -2.60175,-0.88253 -5.23771,-1.48505 -8.2917,-1.8953 -7.99224,-1.49799 -7.3721,-9.78106 0.29746,-3.97312 0.90779,-7.61087 1.35628,-8.08388 0.44848,-0.47302 3.283,-1.03341 6.29892,-1.24532 3.67076,-0.25791 5.79947,-0.76352 6.43933,-1.52948 0.52571,-0.62931 1.57161,-5.75348 2.32423,-11.38703 2.44924,-18.3333 6.21934,-50.06458 6.78447,-57.10174 l 0.55197,-6.87331 -17.16044,0.42553 c -9.43825,0.23404 -18.70863,0.80057 -20.60085,1.25895 -6.82377,1.65303 -6.34239,-1.47666 -6.93956,45.11794 -0.70655,55.13051 -0.82433,134.05102 -0.20218,135.47019 0.57858,1.31976 4.18196,1.48715 8.64659,0.40167 z m 43.99028,3.54624 c -1.80615,-0.92059 -4.83611,-6.09338 -7.09118,-12.10618 -2.82724,-7.5384 -4.44392,-36.96448 -2.9779,-54.20207 0.23919,-2.81238 0.8206,-10.44777 1.29201,-16.96754 0.76904,-10.63596 2.32327,-20.05644 6.22281,-37.71762 2.50802,-11.35889 11.36626,-27.90884 17.84825,-33.34603 2.43374,-2.04146 3.68675,-2.50878 7.46134,-2.78278 6.48922,-0.47104 8.83833,0.62066 11.78014,5.47453 5.30927,8.76009 5.50582,10.13638 5.30124,37.12015 -0.10186,13.43466 -0.37429,26.20478 -0.60541,28.37803 -0.79336,7.45997 1.06004,1.39593 2.41537,-7.90274 1.56281,-10.72215 7.47831,-44.78582 8.69778,-50.08512 1.03709,-4.50675 3.78429,-6.8403 9.93507,-8.43914 6.22217,-1.6174 14.01091,-2.16215 16.20673,-1.1335 1.71345,0.80268 1.80633,1.18485 1.28712,5.29595 -0.72521,5.74217 -8.73289,48.10529 -15.5611,82.32311 -2.95056,14.78601 -5.36466,27.16349 -5.36466,27.50552 0,0.34203 1.71193,1.26419 3.80429,2.04926 l 3.8043,1.42739 -0.52329,3.89723 c -0.7494,5.58124 -4.51251,23.30041 -5.54099,26.09059 -1.4376,3.90008 -3.56007,4.58707 -15.47921,5.01021 -8.23374,0.29231 -10.95051,0.15827 -11.98217,-0.59117 -1.62294,-1.17899 -1.45039,-3.59947 2.50629,-35.15741 3.21364,-25.6317 4.03902,-33.54437 3.44668,-33.0426 -0.23663,0.20045 -1.58997,4.40328 -3.00742,9.33961 -5.95238,20.72934 -14.45922,44.70421 -18.13026,51.0965 -1.2775,2.22448 -3.58383,5.21495 -5.12518,6.64549 -2.30002,2.13466 -3.37369,2.59707 -5.98861,2.57913 -1.75238,-0.012 -3.8368,-0.35347 -4.63204,-0.7588 z m 7.90844,-5.77403 c 8.88893,-9.08992 21.56283,-50.34949 26.4548,-86.12293 1.84526,-13.49381 2.09196,-42.32656 0.41186,-48.13487 -2.53502,-8.76383 -6.80237,-14.36863 -10.93993,-14.36863 -2.66049,0 -10.16232,7.4177 -13.26899,13.12019 -10.90472,20.01633 -17.05896,59.83596 -15.79346,102.188 0.55724,18.64891 1.35931,24.79239 3.89075,29.80161 1.6043,3.1746 4.52893,6.47916 5.73421,6.47916 0.33756,0 1.91739,-1.33314 3.51076,-2.96253 z m -1.08963,-32.89697 c -0.49147,-0.80382 -1.26111,-3.97545 -1.71033,-7.04805 -1.4324,-9.79769 2.43588,-34.63288 5.86137,-37.63127 1.67917,-1.4698 4.50558,-1.7551 6.48098,-0.65418 2.6245,1.46266 0.75426,26.7813 -2.86474,38.7818 -1.94902,6.46292 -5.82342,9.73097 -7.76728,6.5517 z m 5.19544,-16.95306 c 1.89995,-12.01583 2.57984,-22.62271 1.45008,-22.62271 -0.51595,0 -0.94105,0.24247 -0.94466,0.53883 -0.003,0.29635 -0.55762,4.40606 -1.23115,9.13268 -1.12394,7.88759 -1.70174,21.87816 -0.8736,21.15328 0.19304,-0.16897 0.91274,-3.85991 1.59933,-8.20208 z m 35.45047,51.37569 c 5.76094,0 6.19531,-0.73588 9.92783,-16.81918 2.35648,-10.15399 2.17666,-11.30421 -1.86387,-11.92177 -2.15884,-0.32995 -2.39599,-0.65623 -2.6109,-3.59215 -0.19482,-2.66134 11.15992,-64.13795 18.9746,-102.73193 1.08012,-5.33435 1.78478,-10.11677 1.56592,-10.62759 -0.50954,-1.18924 -6.2801,-0.51573 -12.31335,1.43717 -5.20854,1.68594 -6.17279,3.07198 -7.9302,11.39912 -1.31928,6.2511 -9.21136,59.78171 -15.57477,105.64094 -4.11272,29.63917 -4.23093,28.43026 2.70166,27.63084 1.98156,-0.2285 5.18694,-0.41545 7.12308,-0.41545 z m -253.02527,3.73559 c -2.69021,-1.49648 -3.48335,-4.67343 -17.04052,-68.25601 -16.19503,-75.95398 -16.63725,-78.54819 -13.77005,-80.77911 2.57073,-2.00023 7.76606,-2.77072 21.55513,-3.19672 11.75241,-0.36308 13.696,-0.2675 14.63185,0.71953 1.39087,1.46694 8.33959,55.28999 8.33959,64.59636 0,2.10754 -1.21226,2.86863 -6.00384,3.7694 -3.78444,0.71144 -2.62868,3.16425 2.72077,5.77416 2.49517,1.21735 4.9812,3.05322 5.55831,4.10467 0.64863,1.18176 1.23033,6.61467 1.53578,14.34387 l 0.49168,12.44161 -3.45166,1.79608 c -3.31036,1.72254 -3.43404,1.91374 -3.0209,4.6698 2.49247,16.62747 4.68534,35.27906 4.30408,36.60871 -0.27155,0.94704 -1.67404,2.15434 -3.27532,2.81945 -2.88416,1.19798 -10.81206,1.56881 -12.5749,0.5882 z m 11.07695,-4.70984 c 1.24243,-1.08752 1.11358,-2.60746 -1.73344,-20.44697 -1.69162,-10.59966 -2.83241,-19.82697 -2.5351,-20.50514 0.2973,-0.67817 1.74086,-1.67202 3.2079,-2.20856 2.08689,-0.76325 2.75552,-1.50004 3.07255,-3.38579 0.49993,-2.97366 -0.8885,-20.2129 -1.67449,-20.7911 -0.31408,-0.23104 -2.32966,-0.9866 -4.47906,-1.67902 -4.40713,-1.41974 -5.22688,-2.40869 -6.37003,-7.68491 -0.98508,-4.5467 -0.17293,-5.66226 4.12229,-5.66226 4.59428,0 5.23377,-1.13092 4.57324,-8.08758 -1.3559,-14.28022 -6.29651,-51.05191 -7.01778,-52.23158 -0.43614,-0.71334 -2.00361,-1.45616 -3.48325,-1.65073 -3.73861,-0.49159 -19.77421,0.77516 -23.4552,1.85287 -2.96844,0.8691 -3.03288,0.96509 -2.84343,4.23534 0.20186,3.48449 8.886,45.70972 21.55186,104.79261 4.06533,18.96364 7.3915,34.67036 7.3915,34.90383 0,0.91604 8.40946,-0.34549 9.67244,-1.45101 z m 258.80633,4.72268 -2.78446,-0.26258 0.50361,-5.51469 c 0.46827,-5.12768 6.65504,-35.99581 21.48013,-107.17268 6.64417,-31.89935 7.54601,-35.85127 8.48241,-37.17039 1.08675,-1.53093 9.13209,-2.4172 17.26728,-1.90215 l 7.69233,0.48701 -0.4085,5.10375 c -0.64684,8.08136 -34.44976,143.81864 -36.18206,145.2908 -1.0056,0.85459 -11.31562,1.58745 -16.05074,1.14093 z m 10.0855,-3.71985 c 1.5661,-0.5212 2.38004,-1.61905 3.32901,-4.4902 3.18522,-9.6371 34.92247,-135.81938 34.92247,-138.84622 0,-0.90518 -1.32634,-1.09488 -7.59209,-1.0858 -4.17565,0.006 -8.04087,0.26063 -8.5894,0.56573 -1.48966,0.82858 -2.68204,5.99251 -12.49181,54.09895 -16.29857,79.92716 -18.1107,89.14729 -17.64945,89.80055 0.60242,0.85319 5.45601,0.82733 8.07127,-0.043 z m 15.43661,2.79905 c -1.48835,-0.40201 -2.93556,-1.25437 -3.21604,-1.89414 -0.72012,-1.64261 1.80726,-14.83887 5.01248,-26.17182 2.01129,-7.11145 4.16196,-12.31045 8.28287,-20.02282 13.28545,-24.86403 16.83939,-31.6673 16.83939,-32.23553 0,-0.33249 -2.46689,-0.80617 -5.48198,-1.05261 -3.01509,-0.24645 -5.876,-0.79298 -6.35758,-1.21452 -0.62029,-0.54295 0.0368,-4.68461 2.25373,-14.20403 4.1065,-17.63366 12.0095,-47.58856 12.97106,-49.16448 1.56356,-2.56255 15.40828,-4.82727 29.65061,-4.85024 l 8.82323,-0.0142 0,2.17528 c 0,1.19641 -2.3766,10.32947 -5.28133,20.29569 -9.7267,33.37253 -11.66172,38.06816 -27.15496,65.89604 -7.36978,13.23709 -13.52051,24.70709 -13.66829,25.48889 -0.22995,1.21642 0.3408,1.48878 3.95727,1.88837 5.24031,0.57898 6.0336,0.99691 6.0336,3.17861 0,2.62424 -6.23303,23.45997 -8.23922,27.54203 -0.96887,1.9714 -2.37384,3.80168 -3.12213,4.06727 -2.35451,0.83567 -18.47219,1.0568 -21.30271,0.29224 z m 19.21646,-4.399 c 0.70207,-0.61453 2.93803,-6.50823 4.96881,-13.09711 4.26719,-13.84501 4.22529,-14.06876 -2.63492,-14.06876 -6.67214,0 -7.03032,-0.2436 -5.62408,-3.82494 1.29791,-3.30544 6.55728,-12.5937 18.62521,-32.89287 4.37129,-7.35284 8.90149,-15.58659 10.06711,-18.29724 3.67506,-8.54638 19.23459,-56.62778 19.23459,-59.43793 0,-1.64303 -1.64557,-1.85111 -9.10178,-1.15094 -9.33612,0.87671 -18.54543,2.68631 -19.95642,3.92138 -1.9632,1.71842 -16.21371,56.48924 -14.97885,57.57014 0.20757,0.18169 3.15151,0.51399 6.54209,0.73845 3.39057,0.22445 6.63013,0.6599 7.19902,0.96766 0.76245,0.41246 -1.72022,5.60418 -9.44449,19.75012 -13.88791,25.43383 -15.53031,28.90591 -18.4084,38.91585 -2.79008,9.7038 -4.77247,20.0864 -3.9694,20.78933 2.09086,1.83017 15.42235,1.91928 17.48151,0.11686 z m 16.32028,4.5096 c -5.17631,-0.74748 -5.59361,-1.19025 -4.97415,-5.27769 0.29941,-1.97571 2.18855,-9.45087 4.19808,-16.61146 l 3.65368,-13.01926 12.88955,-22.42178 c 7.08926,-12.33199 12.67408,-22.61039 12.41073,-22.84092 -0.26336,-0.23051 -1.90963,-0.58788 -3.6584,-0.79415 -6.78873,-0.80073 -6.87301,-0.84387 -6.87301,-3.51714 0,-3.48061 3.836,-19.10617 6.17246,-25.14284 1.07054,-2.76596 2.88111,-8.26196 4.02349,-12.21332 3.319,-11.48017 6.72585,-21.45152 8.15667,-23.87344 2.15298,-3.6443 7.94484,-4.81736 23.91105,-4.84285 l 13.12647,-0.021 -0.25176,2.87372 c -0.28422,3.24424 -3.50882,13.11103 -10.77531,32.9709 -2.73147,7.46529 -4.96064,13.93117 -4.95373,14.36862 0.0349,2.2079 2.32684,-3.22403 9.51631,-22.55364 4.33553,-11.65655 8.48363,-22.09269 9.21798,-23.19144 0.91823,-1.37386 2.55244,-2.31413 5.23305,-3.01093 5.36974,-1.39582 18.82903,-2.67545 25.26606,-2.40216 l 5.33498,0.2265 -0.16479,3.59215 c -0.18644,4.06417 -4.09287,14.41983 -15.58315,41.30978 -8.25289,19.31373 -16.76993,35.05885 -24.48319,45.26116 -2.53926,3.35867 -5.13965,7.18628 -5.77865,8.50579 -0.639,1.31951 -2.08358,3.358 -3.21019,4.52995 -2.90877,3.02586 -8.03021,11.23505 -7.48814,12.00278 0.25043,0.35468 2.49312,0.7928 4.98374,0.97359 2.49063,0.18079 4.77194,0.54186 5.06957,0.80239 0.29763,0.26051 -2.11931,7.59097 -5.37098,16.28989 -5.00204,13.38155 -6.2482,16.00904 -8.09536,17.06884 -2.9267,1.6792 -21.29078,1.84783 -23.53899,0.21615 -2.01577,-1.46298 -1.2571,-5.03041 4.18717,-19.68888 6.15293,-16.56653 8.18071,-20.48023 21.04557,-40.61877 6.15559,-9.63592 11.01621,-17.7688 10.80136,-18.07309 -0.21484,-0.30427 -2.32927,-0.78001 -4.69873,-1.05718 -5.42717,-0.63485 -7.42367,-2.05619 -6.73628,-4.79566 0.27868,-1.11062 0.30824,-2.01931 0.0657,-2.01931 -0.50525,0 -1.74336,1.87998 -11.35542,17.24234 -15.94709,25.48727 -19.61882,31.72403 -19.36531,32.89366 0.20579,0.94945 1.39419,1.31416 5.18438,1.59103 4.40692,0.32193 4.94593,0.53586 5.1924,2.06082 0.35131,2.17359 -3.22933,14.6917 -7.11299,24.8674 -2.58427,6.77109 -3.30216,7.95786 -5.06314,8.36995 -2.6135,0.61158 -15.80074,0.59155 -20.10877,-0.0305 z m 16.93562,-5.03392 c 2.40493,-2.59966 9.89513,-24.58932 8.72468,-25.61383 -0.26082,-0.2283 -2.55391,-0.66212 -5.09576,-0.96405 -2.54186,-0.30193 -4.99621,-0.8769 -5.45412,-1.27772 -1.18073,-1.03351 1.30435,-6.23598 7.3131,-15.30986 2.74744,-4.14894 6.71444,-10.43518 8.81554,-13.96942 2.10111,-3.53424 5.42114,-8.73436 7.37785,-11.55582 3.95775,-5.70683 8.03219,-14.28482 14.367,-30.247 5.2142,-13.13851 14.31476,-37.869 15.10094,-41.03635 l 0.57956,-2.3349 -4.78462,0.006 c -5.60132,0.007 -13.73482,1.05005 -19.63204,2.5192 -3.57464,0.89053 -4.37715,1.43143 -5.56124,3.74824 -1.62227,3.17419 -6.84501,19.86025 -12.5034,39.94691 -3.92302,13.92626 -3.97804,14.27266 -2.42504,15.26666 0.87397,0.55938 3.45751,1.02201 5.7412,1.02806 6.2656,0.0166 6.69684,0.50941 4.46202,5.09899 -1.03655,2.12872 -6.39035,11.46781 -11.89734,20.75353 -12.64149,21.31573 -14.96008,26.28467 -19.2008,41.14916 -4.25213,14.90442 -4.22692,14.95486 7.30091,14.60702 4.35478,-0.1314 5.49815,-0.43773 6.77156,-1.81424 z m 32.19576,-0.59842 c 2.81644,-4.80227 9.6263,-22.02479 9.39653,-23.76442 -0.23209,-1.75732 -0.59848,-1.93855 -4.3365,-2.14505 -2.24564,-0.12406 -4.52904,-0.5496 -5.0742,-0.94563 -1.40919,-1.02371 0.35502,-5.0536 5.66551,-12.9414 2.37185,-3.52296 4.83115,-7.28484 5.46511,-8.35973 0.63397,-1.07489 1.41538,-2.11599 1.73647,-2.31356 0.32109,-0.19756 1.42642,-1.81353 2.4563,-3.59103 1.02987,-1.7775 3.88357,-6.0776 6.34155,-9.55577 7.88363,-11.15579 15.47374,-26.38349 27.27236,-54.71536 4.52909,-10.87565 8.23471,-20.63372 8.23471,-21.6846 l 0,-1.91069 -7.59208,0.46292 c -9.28261,0.566 -16.54326,2.01854 -18.72372,3.74578 -1.01609,0.80491 -3.63448,6.75312 -6.9174,15.71431 -6.42036,17.52519 -14.50449,41.48318 -14.11322,41.82567 0.15694,0.13736 2.56541,0.45835 5.35218,0.71331 8.07621,0.73888 8.18966,0.98815 3.88068,8.52676 -2.03064,3.55261 -5.60481,9.36894 -7.94261,12.92518 -14.43444,21.95752 -18.58268,29.74464 -23.5368,44.18351 -3.88011,11.30864 -4.58884,14.06273 -3.87798,15.06952 0.29181,0.41328 3.72793,0.73596 7.83702,0.73596 7.15452,0 7.34317,-0.044 8.47609,-1.97568 z M 309.61773,183.22115 c -2.55472,-1.41936 -3.40955,-9.91973 -1.77561,-17.65647 0.72391,-3.42775 0.66564,-4.3594 -0.33403,-5.34057 -1.79912,-1.76581 -2.66584,-5.34069 -5.47638,-22.58812 l -2.55059,-15.65217 6.80072,-9.49292 c 7.02463,-9.80545 12.35494,-15.599564 14.35088,-15.599564 0.63082,0 1.46802,0.739208 1.86045,1.642684 1.1284,2.59788 3.56304,27.26952 3.66626,37.15259 l 0.0938,8.98039 -5.60519,17.11121 c -7.38678,22.54991 -7.75376,23.26333 -11.03032,21.44294 z m 7.78078,-27.74962 c 4.1866,-13.06669 4.60687,-15.02721 4.54933,-21.22178 -0.0732,-7.87927 -2.4582,-28.10387 -3.41397,-28.95 -0.65923,-0.58359 -3.8864,2.72233 -5.81819,5.9602 -0.58938,0.98784 -1.31504,1.95773 -1.61259,2.15529 -0.29755,0.19757 -1.95517,2.59277 -3.6836,5.32267 l -3.14262,4.96346 1.37405,8.68673 c 2.46075,15.55686 2.90869,16.98414 6.14475,19.57913 3.46119,2.77551 3.5963,4.70101 0.96323,13.72789 -1.77245,6.07646 -2.14854,8.94303 -0.77945,5.9411 0.44348,-0.9724 2.88206,-8.24651 5.41906,-16.16469 z"
       id="path2987"
       inkscape:connector-curvature="0"
       inkscape:export-filename="D:\Mes Documents\My Pictures\fanfo\logo\logofestival2011.png"
       inkscape:export-xdpi="57.918358"
       inkscape:export-ydpi="57.918358"
       sodipodi:nodetypes="sssssssssscccsssscsscsssssssssssccsssssssscsscscccssssssssssssssssssssssssssccsssssssssssssssssscssssssssssssssscsssssssssscsssssssssscssssssssssssssssssssssssscscssscsssscsssssssssscssssssssssssssssssssssssssssssssssssscssssssssssssssssssssssscssssssssscsssssssssssssssssscscsssssscssssssssssssssscssssssssssssssssssssssscsssscssscsscsssccsssssssssscssssssssssssssssssssssssscsscscsssssscssssssscssssssssssssssssssssssscccssssssssccsssssssssccssssssssssscssscssssssssssscsssscsssssscscsssss" />
  </g>
</svg>
